<?xml version="1.0" standalone="no"?>
<!DOCTYPE svg PUBLIC "-//W3C//DTD SVG 20010904//EN"
 "http://www.w3.org/TR/2001/REC-SVG-20010904/DTD/svg10.dtd">
<svg version="1.0" xmlns="http://www.w3.org/2000/svg"
 width="3375.000000pt" height="375.000000pt" viewBox="0 0 3375.000000 375.000000"
 preserveAspectRatio="xMidYMid meet">

<g transform="translate(0.000000,375.000000) scale(0.100000,-0.100000)"
fill="#000000" stroke="none">
<path d="M13575 2950 c-204 -21 -372 -70 -520 -151 -210 -115 -347 -273 -433
-497 -51 -133 -67 -222 -66 -372 2 -267 85 -506 233 -672 63 -69 176 -155 273
-207 266 -143 735 -178 1055 -80 101 31 237 101 316 162 l37 29 0 -96 0 -96
200 0 200 0 0 525 0 525 -525 0 -525 0 0 -190 0 -190 300 -2 299 -3 -22 -44
c-34 -67 -134 -154 -230 -201 -378 -183 -858 -72 -1011 233 -115 230 -96 513
49 705 125 167 372 257 636 232 193 -19 288 -60 404 -173 l80 -79 275 38 c151
20 277 39 279 40 2 2 -18 38 -45 81 -147 238 -401 399 -728 462 -124 24 -394
35 -531 21z m495 -57 c165 -27 349 -96 471 -179 104 -70 286 -271 265 -292 -4
-3 -109 -20 -234 -38 l-227 -31 -76 72 c-136 130 -282 179 -524 178 -144 -1
-242 -21 -350 -72 -118 -56 -225 -156 -280 -260 -73 -143 -95 -344 -55 -506
68 -277 260 -442 574 -496 94 -16 280 -6 381 20 225 59 411 207 460 369 l6 22
-310 0 -311 0 0 150 0 150 485 0 485 0 0 -485 0 -485 -160 0 -160 0 0 120 0
120 -77 -63 c-142 -114 -317 -188 -514 -217 -137 -20 -437 -8 -569 23 -218 51
-362 128 -500 267 -81 82 -123 145 -175 267 -54 125 -70 222 -70 418 0 189 13
254 80 400 132 290 384 474 743 541 186 35 453 38 642 7z"/>
<path d="M8653 2939 c-437 -67 -731 -278 -862 -619 -122 -314 -75 -721 113
-983 62 -88 182 -198 273 -251 294 -173 732 -223 1121 -131 199 48 344 122
474 244 174 163 276 382 297 636 10 123 -1 284 -24 379 -96 384 -360 616 -804
708 -111 22 -482 34 -588 17z m552 -53 c378 -69 638 -254 751 -536 57 -140 68
-202 68 -400 1 -162 -2 -196 -23 -275 -117 -452 -468 -698 -1031 -722 -290
-12 -568 50 -782 174 -90 52 -234 200 -292 298 -52 89 -100 228 -117 337 -17
108 -6 355 18 443 47 163 107 273 210 385 147 159 357 259 640 305 116 19 432
14 558 -9z"/>
<path d="M8730 2595 c-36 -8 -108 -36 -160 -61 -166 -82 -289 -231 -336 -409
-22 -83 -30 -259 -15 -337 39 -205 155 -371 319 -456 129 -67 175 -77 357 -77
175 1 218 9 350 69 232 107 378 398 345 690 -18 158 -82 298 -184 401 -74 75
-155 125 -261 161 -69 24 -98 28 -215 30 -91 2 -156 -2 -200 -11z m335 -40
c235 -49 417 -232 471 -471 25 -115 16 -272 -23 -384 -87 -255 -283 -392 -578
-407 -324 -16 -551 127 -649 407 -27 77 -29 97 -29 215 -1 211 48 339 178 471
79 81 193 143 306 168 85 19 237 19 324 1z"/>
<path d="M28626 2934 c-257 -40 -457 -130 -609 -274 -216 -204 -308 -449 -294
-779 22 -508 327 -839 872 -947 127 -26 470 -26 605 -1 302 57 526 183 669
377 146 197 209 414 198 685 -22 531 -341 858 -917 940 -131 18 -403 18 -524
-1z m504 -39 c401 -54 670 -222 801 -500 127 -269 126 -653 -2 -908 -119 -236
-282 -376 -539 -461 -168 -56 -267 -70 -490 -70 -224 0 -323 14 -490 70 -343
114 -552 342 -626 679 -23 108 -24 360 -1 463 94 417 408 670 912 735 76 10
340 5 435 -8z"/>
<path d="M28710 2590 c-284 -74 -469 -288 -500 -581 -28 -275 81 -527 283
-656 121 -77 261 -109 445 -100 278 12 478 136 582 359 51 110 65 179 64 328
0 121 -3 143 -28 215 -79 230 -254 388 -483 439 -100 22 -267 20 -363 -4z
m416 -53 c287 -94 455 -376 415 -695 -27 -213 -141 -391 -301 -472 -117 -59
-191 -75 -350 -75 -161 0 -214 12 -329 70 -126 63 -226 181 -277 325 -35 97
-44 276 -20 389 52 246 226 418 481 477 97 22 282 13 381 -19z"/>
<path d="M2193 2888 c-12 -16 -923 -1902 -923 -1911 0 -4 125 -7 278 -7 l278
0 78 175 79 175 472 0 472 0 78 -175 78 -175 289 0 289 0 -15 28 c-8 15 -213
439 -456 942 -243 503 -448 925 -456 938 -14 22 -16 22 -273 22 -195 0 -261
-3 -268 -12z m952 -949 c242 -501 442 -915 443 -920 2 -5 -99 -9 -236 -9
l-240 0 -80 177 -80 178 -498 0 -497 0 -80 -177 -80 -178 -233 0 -233 0 53
113 c69 145 781 1617 812 1680 l24 47 243 0 242 0 440 -911z"/>
<path d="M2437 2443 c-2 -4 -10 -26 -17 -48 -11 -34 -157 -362 -289 -647 l-40
-88 363 0 364 0 -162 358 c-89 196 -167 373 -172 392 -9 32 -36 52 -47 33z
m174 -431 c77 -167 139 -306 139 -308 0 -2 -133 -4 -296 -4 -233 0 -295 3
-291 13 3 6 64 143 137 302 73 160 136 301 142 315 12 32 -1 56 169 -318z"/>
<path d="M5930 1935 l0 -965 255 0 255 0 0 965 0 965 -255 0 -255 0 0 -965z
m470 -5 l0 -920 -215 0 -215 0 0 920 0 920 215 0 215 0 0 -920z"/>
<path d="M15912 2888 c-12 -16 -912 -1876 -919 -1901 -5 -16 13 -17 273 -17
l279 0 77 173 77 172 473 3 473 2 79 -175 78 -175 285 0 c267 0 285 1 280 17
-7 26 -907 1886 -919 1901 -8 9 -74 12 -268 12 -194 0 -260 -3 -268 -12z m943
-929 c237 -490 436 -904 443 -920 l12 -29 -241 2 -241 3 -80 178 -80 177 -496
-2 -496 -3 -80 -177 -79 -178 -234 0 -233 0 12 29 c7 16 207 430 443 920 l430
890 245 0 245 0 430 -890z"/>
<path d="M16154 2433 c-24 -69 -71 -177 -198 -453 l-144 -315 356 -3 c195 -1
357 0 360 3 3 2 -66 159 -152 347 -87 189 -163 363 -170 388 -13 48 -41 66
-52 33z m171 -409 l144 -319 -291 -3 c-160 -1 -293 0 -295 2 -2 2 51 125 118
272 67 148 133 293 146 323 13 29 26 51 28 49 3 -3 70 -148 150 -324z"/>
<path d="M17537 2893 c-4 -3 -7 -438 -7 -965 l0 -958 245 0 246 0 -3 654 c-2
360 -2 654 -2 653 37 -51 313 -371 673 -780 l464 -527 249 0 248 0 -2 963 -3
962 -243 3 -243 2 3 -652 3 -653 -102 123 c-57 67 -312 361 -569 652 l-466
530 -242 0 c-134 0 -246 -3 -249 -7z m939 -565 c252 -287 522 -598 599 -691
77 -92 141 -164 143 -158 2 6 -1 67 -7 136 -6 71 -11 370 -11 681 l0 554 205
0 205 0 -2 -917 -3 -918 -216 -3 -215 -2 -465 526 c-255 290 -526 603 -603
696 -76 93 -141 167 -143 164 -2 -2 1 -57 6 -122 6 -66 11 -377 11 -691 l0
-573 -205 0 -205 0 0 920 0 920 224 0 223 0 459 -522z"/>
<path d="M20037 2894 c-4 -4 -7 -439 -7 -966 l0 -958 260 0 260 0 -2 963 -3
962 -251 3 c-138 1 -253 -1 -257 -4z m471 -961 l-3 -918 -212 -3 -213 -2 0
920 0 920 215 0 215 0 -2 -917z"/>
<path d="M20917 2893 c-4 -3 -7 -89 -7 -190 l0 -183 584 -2 584 -3 -629 -584
-629 -585 0 -188 0 -188 990 0 990 0 -2 193 -3 192 -629 5 -629 5 631 585 632
585 -3 180 -2 180 -936 3 c-514 1 -939 -1 -942 -5z m1833 -195 l-1 -153 -659
-610 c-363 -335 -660 -613 -660 -617 0 -5 297 -8 660 -8 l660 0 0 -150 0 -150
-945 0 -945 0 0 158 0 158 661 614 662 615 -614 5 -614 5 -3 143 -3 142 901 0
900 0 0 -152z"/>
<path d="M23771 2833 c-50 -101 -774 -1598 -842 -1741 l-58 -122 282 2 281 3
76 170 76 170 474 0 474 0 77 -170 77 -170 286 -3 c157 -1 286 1 285 5 0 5
-208 438 -462 963 l-462 955 -265 3 -266 2 -33 -67z m980 -896 c242 -500 439
-913 439 -918 0 -6 -94 -8 -237 -7 l-238 3 -79 177 -80 178 -496 0 -495 0 -80
-178 -80 -177 -234 -3 c-191 -2 -232 0 -228 11 3 7 202 421 443 920 l438 907
244 -2 245 -3 438 -908z"/>
<path d="M24031 2408 c-7 -24 -83 -196 -168 -383 -85 -187 -157 -346 -160
-352 -4 -10 71 -13 356 -13 199 0 361 2 361 4 0 3 -70 159 -157 348 -86 189
-162 363 -168 388 -9 32 -18 46 -32 48 -15 2 -22 -6 -32 -40z m96 -196 c34
-75 100 -221 147 -324 l85 -188 -299 0 -298 0 147 325 c80 178 148 324 151
324 3 0 33 -61 67 -137z"/>
<path d="M3810 1930 l0 -960 255 0 255 0 0 354 0 354 443 5 c365 4 455 8 517
22 224 50 373 194 427 411 20 82 22 267 4 334 -32 118 -93 232 -157 292 -67
61 -190 115 -318 137 -38 7 -310 11 -743 11 l-683 0 0 -960z m1500 891 c158
-48 249 -120 310 -244 44 -91 60 -168 60 -282 0 -183 -45 -308 -145 -410 -139
-142 -265 -165 -891 -165 l-364 0 0 -355 0 -355 -210 0 -210 0 0 920 0 921
688 -3 c682 -4 688 -4 762 -27z"/>
<path d="M4280 2290 l0 -281 388 3 c337 3 393 6 432 21 99 38 153 124 154 242
1 91 -24 162 -74 214 -74 76 -67 75 -507 79 l-393 3 0 -281z m820 210 c28 -16
55 -43 75 -74 26 -43 30 -60 33 -135 5 -117 -19 -163 -103 -206 l-59 -30 -363
-3 -363 -3 0 241 0 242 368 -4 367 -3 45 -25z"/>
<path d="M10370 1930 l0 -960 255 0 255 0 0 380 0 380 253 0 252 0 250 -379
250 -380 303 0 c166 -1 302 2 302 5 0 3 -128 181 -285 397 l-285 391 72 18
c203 51 333 175 383 364 19 72 22 218 5 299 -32 159 -139 304 -275 371 -145
71 -96 68 -957 71 l-778 4 0 -961z m1625 888 c180 -61 285 -170 334 -348 69
-247 -30 -513 -223 -604 -33 -16 -98 -37 -145 -48 -119 -28 -115 -26 -104 -41
36 -45 553 -758 553 -762 0 -3 -112 -5 -249 -5 l-249 0 -251 380 -251 380
-285 0 -285 0 0 -380 0 -380 -215 0 -215 0 0 920 0 921 753 -3 752 -3 80 -27z"/>
<path d="M10840 2310 l0 -251 448 3 c508 3 499 2 572 85 98 112 64 316 -65
382 l-49 26 -453 3 -453 3 0 -251z m933 186 c59 -29 91 -85 95 -167 5 -87 -1
-110 -40 -155 -61 -69 -55 -69 -525 -72 l-423 -3 0 211 0 211 428 -3 c396 -3
430 -4 465 -22z"/>
<path d="M25420 1930 l0 -961 643 4 c713 4 718 4 903 76 204 79 396 271 474
474 57 147 73 236 74 407 1 165 -13 254 -59 390 -91 267 -305 455 -610 537
l-100 27 -662 4 -663 3 0 -961z m1314 905 c340 -51 595 -253 686 -544 38 -120
51 -213 51 -357 0 -194 -31 -330 -108 -476 -80 -153 -253 -309 -408 -369 -181
-70 -193 -71 -877 -76 l-618 -5 0 921 0 921 588 0 c469 0 607 -3 686 -15z"/>
<path d="M25890 1930 l0 -630 308 0 c415 1 502 13 620 89 101 66 164 166 210
336 24 88 23 346 -2 440 -43 166 -123 277 -241 337 -97 50 -171 57 -552 58
l-343 0 0 -630z m726 579 c259 -36 385 -219 386 -559 1 -160 -16 -252 -66
-357 -40 -84 -109 -158 -176 -190 -103 -50 -145 -55 -497 -60 l-333 -5 0 591
0 591 304 0 c168 0 340 -5 382 -11z"/>
<path d="M30360 1930 l0 -960 260 0 260 0 0 380 0 380 250 0 251 0 251 -380
251 -380 304 0 c251 0 303 2 296 13 -4 8 -133 185 -285 394 -153 209 -278 382
-278 385 0 3 26 10 58 17 31 7 94 30 138 51 165 79 259 231 271 441 7 116 -12
213 -61 315 -63 131 -162 215 -321 271 l-80 28 -782 3 -783 3 0 -961z m1603
897 c222 -65 347 -211 377 -440 30 -223 -66 -435 -234 -517 -34 -17 -103 -41
-154 -53 -50 -13 -95 -26 -98 -29 -3 -3 106 -158 242 -344 136 -187 262 -360
281 -386 l35 -48 -254 1 -253 0 -250 379 -250 380 -287 0 -288 0 0 -380 0
-380 -210 0 -210 0 0 920 0 921 748 -3 c671 -3 753 -6 805 -21z"/>
<path d="M30830 2310 l0 -251 453 3 452 3 55 31 c32 18 68 49 85 73 28 40 30
49 30 134 0 80 -3 98 -25 136 -35 62 -85 99 -149 111 -31 6 -231 10 -477 10
l-424 0 0 -250z m936 188 c89 -49 130 -176 89 -275 -20 -48 -41 -70 -90 -97
-39 -20 -53 -21 -462 -24 l-423 -3 0 211 0 211 428 -3 c381 -3 430 -5 458 -20z"/>
</g>
</svg>
